<svg xmlns="http://www.w3.org/2000/svg" viewBox="0 0 1200 800" width="100%" height="100%">
  <defs>
    <pattern id="grid" width="20" height="20" patternUnits="userSpaceOnUse">
      <path d="M 20 0 L 0 0 0 20" fill="none" stroke="#E8E4DB" stroke-width="0.5" stroke-opacity="0.5"/>
    </pattern>
    <pattern id="dot-grid" width="40" height="40" patternUnits="userSpaceOnUse">
      <circle cx="2" cy="2" r="1.5" fill="#D1CCC2" fill-opacity="0.6"/>
    </pattern>
    <filter id="shadow" x="-5%" y="-5%" width="110%" height="110%">
      <feDropShadow dx="0" dy="2" stdDeviation="4" flood-color="#000000" flood-opacity="0.05"/>
    </filter>
    <filter id="badge-shadow" x="-10%" y="-10%" width="120%" height="120%">
      <feDropShadow dx="0" dy="2" stdDeviation="3" flood-color="#B9825F" flood-opacity="0.3"/>
    </filter>
    <style>
      .terminal-text { font-family: 'Courier New', monospace; font-size: 11px; fill: #221F1B; }
      .terminal-sm { font-family: 'Courier New', monospace; font-size: 10px; fill: #4A4A4A; }
      .header-text { font-family: 'Inter', system-ui, -apple-system, sans-serif; font-size: 11px; font-weight: 700; fill: #221F1B; letter-spacing: 1.2px; text-transform: uppercase; }
      .label-text { font-family: 'Inter', system-ui, -apple-system, sans-serif; font-size: 10px; font-weight: 600; fill: #6B625A; letter-spacing: 0.5px; }
      .data-mono { font-family: 'Courier New', monospace; font-size: 12px; fill: #221F1B; font-weight: bold; }
      .accent { fill: #B9825F; }
      .accent-bg { fill: #B9825F; }
      .emerald-text { fill: #065F46; }
      .emerald-bg { fill: #065F46; }
      .ivory-bg { fill: #FBF7EF; }
      .panel-bg { fill: #FFFFFF; stroke: #E5E0D8; stroke-width: 1; }
    </style>
  </defs>

  <rect width="1200" height="800" fill="#FBF7EF" />
  <rect width="1200" height="800" fill="url(#grid)" />

  <!-- TOP BAR -->
  <g id="top-bar">
    <rect x="0" y="0" width="1200" height="36" fill="#FFFFFF" filter="url(#shadow)"/>
    <line x1="0" y1="36" x2="1200" y2="36" stroke="#E0DCD3" stroke-width="1"/>
    <rect x="0" y="0" width="320" height="36" fill="#F4F1EA"/>
    <text x="15" y="22" class="label-text">SYSTEM: CROSS-EMR NORMALIZATION ENGINE</text>
    <circle cx="280" cy="18" r="4" fill="#065F46"/>
    <circle cx="280" cy="18" r="4" fill="#065F46" opacity="0.5">
      <animate attributeName="r" values="4;8;4" dur="1.5s" repeatCount="indefinite" />
      <animate attributeName="opacity" values="0.5;0;0.5" dur="1.5s" repeatCount="indefinite" />
    </circle>
    <text x="292" y="22" class="terminal-sm" fill="#065F46">LIVE VERIFICATION</text>
    <text x="400" y="22" class="header-text" style="font-size: 10px;">// PORTFOLIO INTENT NORMALIZATION // Q3 2026 // VERIFIED RECORDS: 849,201</text>
    <text x="1020" y="22" class="label-text" style="text-anchor: end;">SCRUTEXITY // OPERATIONAL VERIFICATION</text>
    <line x1="1030" y1="26" x2="1185" y2="26" stroke="#B9825F" stroke-width="1.5" stroke-dasharray="2,2"/>
  </g>

  <!-- MAIN CONTENT -->
  <g id="main-content" transform="translate(0, 36)">
    
    <!-- LEFT PANEL: INTENT SIGNAL FEED -->
    <g id="left-panel" transform="translate(15, 15)">
      <rect x="0" y="0" width="280" height="710" class="panel-bg" filter="url(#shadow)"/>
      <rect x="0" y="0" width="280" height="32" fill="#F4F1EA"/>
      <text x="15" y="20" class="header-text">INTENT SIGNAL FEED</text>
      <line x1="0" y1="32" x2="280" y2="32" stroke="#EBE6DE" stroke-width="1"/>

      <g transform="translate(0, 40)">
        <text x="15" y="12" class="label-text" style="font-size: 9px;">TIME</text>
        <text x="85" y="12" class="label-text" style="font-size: 9px;">SOURCE</text>
        <text x="130" y="12" class="label-text" style="font-size: 9px;">EVENT</text>
        <text x="235" y="12" class="label-text" style="font-size: 9px;">STATUS</text>
        <line x1="0" y1="20" x2="280" y2="20" stroke="#D1CCC2" stroke-width="1.5"/>

        <g class="terminal-text" transform="translate(0, 30)">
          <text x="15" y="0" class="terminal-sm">14:22:31.192</text>
          <text x="85" y="0" class="terminal-text accent">BVD</text>
          <text x="115" y="0" class="terminal-text">Morpheus8 Consult</text>
          <text x="235" y="0" class="emerald-text">ROUTED</text>
          <text x="15" y="18" class="terminal-sm">14:21:45.845</text>
          <text x="85" y="18" class="terminal-text">MGT</text>
          <text x="115" y="18" class="terminal-text">Botox Inquiry</text>
          <text x="235" y="18" class="emerald-text">VERIFIED</text>
          <text x="15" y="36" class="terminal-sm">14:20:10.110</text>
          <text x="85" y="36" class="terminal-text accent">BVD</text>
          <text x="115" y="36" class="terminal-text">CO2 Laser Consult</text>
          <text x="235" y="36" class="emerald-text">ROUTED</text>
          <text x="15" y="54" class="terminal-sm">14:19:29.002</text>
          <text x="85" y="54" class="terminal-text accent">ZNT</text>
          <text x="115" y="54" class="terminal-text">Filler Booking</text>
          <text x="235" y="54" class="terminal-text">PENDING</text>
          <text x="15" y="72" class="terminal-sm">14:18:28.451</text>
          <text x="85" y="72" class="terminal-text">MGT</text>
          <text x="115" y="72" class="terminal-text">SkinPen Inquiry</text>
          <text x="235" y="72" class="emerald-text">VERIFIED</text>
          <text x="15" y="90" class="terminal-sm">14:17:27.992</text>
          <text x="85" y="90" class="terminal-text accent">BVD</text>
          <text x="115" y="90" class="terminal-text">Neurotoxin Follow-up</text>
          <text x="235" y="90" class="emerald-text">ROUTED</text>
          <text x="15" y="108" class="terminal-sm">14:16:26.334</text>
          <text x="85" y="108" class="terminal-text">MGT</text>
          <text x="115" y="108" class="terminal-text">PRP Consult</text>
          <text x="235" y="108" class="terminal-text">PENDING</text>
          <text x="15" y="126" class="terminal-sm">14:15:25.771</text>
          <text x="85" y="126" class="terminal-text accent">ZNT</text>
          <text x="115" y="126" class="terminal-text">IPL Booking</text>
          <text x="235" y="126" class="emerald-text">VERIFIED</text>
        </g>
        
        <line x1="0" y1="165" x2="280" y2="165" stroke="#EBE6DE" stroke-width="1"/>
        
        <g transform="translate(15, 185)">
          <text x="0" y="0" class="label-text">RECOVERY VOLUME (LAST 15M)</text>
          <polyline points="0,40 15,30 30,20 45,45 60,10 75,15 90,35 105,25 120,50 135,15 150,5 165,20 180,45 195,10 210,25" fill="none" stroke="#065F46" stroke-width="1.5"/>
        </g>
        
        <g transform="translate(15, 260)">
          <text x="0" y="0" class="label-text">PROTOCOL ALERTS</text>
          <text x="0" y="18" class="terminal-text">14:20:31.012 - <tspan class="accent">ALERT:</tspan> ROUTING MISMATCH // BVD</text>
          <text x="0" y="36" class="terminal-text">14:18:11.884 - <tspan class="accent">ALERT:</tspan> TESTIMONIAL CONSENT EXPIRED</text>
          <text x="0" y="54" class="terminal-text">14:15:00.123 - CPOM BOUNDARY CHECK // MGT</text>
        </g>
      </g>
      
      <line x1="15" y1="680" x2="265" y2="680" stroke="#EBE6DE" stroke-width="1"/>
      <rect x="15" y="690" width="250" height="12" fill="none" stroke="#B9825F" stroke-width="0.5"/>
      <text x="140" y="699" class="label-text" style="font-size: 7px; text-anchor: middle; fill: #B9825F;">[ OPERATIONAL VERIFICATION ] READ-ONLY</text>
    </g>

    <!-- CENTER PANEL: CROSS-EMR NORMALIZATION -->
    <g id="center-panel" transform="translate(310, 15)">
      <rect x="0" y="0" width="520" height="710" class="panel-bg" filter="url(#shadow)"/>
      <rect x="0" y="0" width="520" height="32" fill="#F4F1EA"/>
      <text x="15" y="20" class="header-text">CROSS-EMR NORMALIZATION // PORTFOLIO COVERAGE</text>
      <line x1="0" y1="32" x2="520" y2="32" stroke="#EBE6DE" stroke-width="1"/>
      
      <g transform="translate(40, 50)">
        <rect x="0" y="0" width="440" height="440" fill="url(#dot-grid)" />
        
        <g fill="none">
          <path d="M 50,300 C 150,380 300,390 400,320 C 420,300 410,260 380,240 C 300,180 150,200 80,250 C 50,270 40,290 50,300 Z" stroke="#D1CCC2" stroke-width="1"/>
          <path d="M 100,280 C 170,330 260,340 340,290 C 370,270 360,240 330,220 C 270,180 190,190 110,240 C 90,250 80,270 100,280 Z" stroke="#B9825F" stroke-opacity="0.4" stroke-width="2"/>
          <path d="M 180,240 C 220,270 260,270 280,240 C 300,220 290,200 260,190 C 230,170 210,180 180,210 C 160,220 160,235 180,240 Z" stroke="#065F46" stroke-width="3" fill="#065F46" fill-opacity="0.1"/>
        </g>
        
        <g>
          <circle cx="250" cy="210" r="6" fill="#065F46" />
          <circle cx="250" cy="210" r="6" fill="none" stroke="#FFFFFF" stroke-width="1.5"/>
          <text x="250" y="196" class="label-text" style="text-anchor: middle; fill: #065F46;">BOULEVARD</text>
          <text x="250" y="236" class="terminal-sm" style="text-anchor: middle;">12 NODES</text>
          
          <circle cx="350" cy="180" r="5" fill="#065F46" fill-opacity="0.8"/>
          <text x="350" y="168" class="label-text" style="text-anchor: middle;">MANGOMINT</text>
          <text x="350" y="200" class="terminal-sm" style="text-anchor: middle;">8 NODES</text>
          
          <circle cx="200" cy="350" r="5" fill="#B9825F" fill-opacity="0.6"/>
          <text x="200" y="338" class="label-text" style="text-anchor: middle; fill: #B9825F;">ZENOTI</text>
          <text x="200" y="370" class="terminal-sm" style="text-anchor: middle;">PLANNED</text>
          
          <circle cx="130" cy="230" r="3" fill="#D1CCC2"/>
          <text x="130" y="218" class="label-text" style="text-anchor: middle;">OTHER</text>
          <text x="130" y="248" class="terminal-sm" style="text-anchor: middle;">2 NODES</text>
        </g>
        
        <g stroke="#E8E4DB" stroke-width="0.5">
          <line x1="0" y1="110" x2="440" y2="110"/>
          <line x1="0" y1="220" x2="440" y2="220"/>
          <line x1="0" y1="330" x2="440" y2="330"/>
          <line x1="110" y1="0" x2="110" y2="440"/>
          <line x1="220" y1="0" x2="220" y2="440"/>
          <line x1="330" y1="0" x2="330" y2="440"/>
        </g>
        
        <g transform="translate(15, 400)">
          <rect x="0" y="0" width="120" height="30" fill="#FFFFFF" fill-opacity="0.9" stroke="#E5E0D8" stroke-width="0.5"/>
          <line x1="10" y1="12" x2="30" y2="12" stroke="#D1CCC2" stroke-width="2"/>
          <text x="40" y="15" class="terminal-sm" fill="#4A4A4A">LOW</text>
          <line x1="70" y1="12" x2="90" y2="12" stroke="#065F46" stroke-width="2"/>
          <text x="100" y="15" class="terminal-sm" fill="#065F46">VERIFIED</text>
        </g>
      </g>
      
      <g transform="translate(40, 520)">
        <text x="0" y="0" class="header-text" style="font-size: 10px;">PROTOCOL ADHERENCE // PORTFOLIO-WIDE (ROLLING 90-DAY)</text>
        <line x1="0" y1="10" x2="440" y2="10" stroke="#EBE6DE" stroke-width="1"/>
        
        <g transform="translate(0, 25)">
          <rect x="0" y="0" width="100" height="20" fill="#F4F1EA" stroke="#E5E0D8" stroke-width="0.5"/>
          <text x="10" y="14" class="label-text">CLINICAL ROUTING</text>
          <rect x="0" y="0" width="88" height="20" fill="#065F46" fill-opacity="0.2"/>
          <text x="105" y="14" class="data-mono emerald-text">98.2%</text>
          
          <rect x="0" y="25" width="100" height="20" fill="#F4F1EA" stroke="#E5E0D8" stroke-width="0.5"/>
          <text x="10" y="39" class="label-text">PHI SANITIZATION</text>
          <rect x="0" y="25" width="95" height="20" fill="#065F46" fill-opacity="0.25"/>
          <text x="105" y="39" class="data-mono emerald-text">100%</text>
          
          <rect x="0" y="50" width="100" height="20" fill="#F4F1EA" stroke="#E5E0D8" stroke-width="0.5"/>
          <text x="10" y="64" class="label-text">AUDIT TRAIL</text>
          <rect x="0" y="50" width="78" height="20" fill="#065F46" fill-opacity="0.2"/>
          <text x="105" y="64" class="data-mono emerald-text">94.7%</text>
          
          <rect x="0" y="75" width="100" height="20" fill="#F4F1EA" stroke="#E5E0D8" stroke-width="0.5"/>
          <text x="10" y="89" class="label-text">RECOVERY RATE</text>
          <rect x="0" y="75" width="65" height="20" fill="#B9825F" fill-opacity="0.2"/>
          <text x="105" y="89" class="data-mono accent">87.3%</text>
        </g>
        
        <g transform="translate(250, 25)">
          <text x="0" y="0" class="label-text">RECORDS VERIFIED</text>
          <text x="0" y="20" class="data-mono" style="font-size: 20px; fill: #065F46;">849,201</text>
          <text x="0" y="40" class="terminal-sm">90-DAY ROLLING: GREEN</text>
          <text x="0" y="55" class="terminal-sm">LAST SCAN: LIVE</text>
        </g>
      </g>
      
      <line x1="40" y1="680" x2="480" y2="680" stroke="#EBE6DE" stroke-width="1"/>
      <text x="45" y="695" class="terminal-sm" fill="#4A4A4A">SOURCE: SCRUTEXITY AUDIT TRAIL // OPERATIONAL VERIFICATION ONLY</text>
    </g>

    <!-- RIGHT PANEL: VERIFICATION STATUS -->
    <g id="right-panel" transform="translate(845, 15)">
      <rect x="0" y="0" width="340" height="710" class="panel-bg" filter="url(#shadow)"/>
      <rect x="0" y="0" width="340" height="32" fill="#F4F1EA"/>
      <text x="15" y="20" class="header-text">VERIFICATION STATUS &amp; METRICS</text>
      <line x1="0" y1="32" x2="340" y2="32" stroke="#EBE6DE" stroke-width="1"/>

      <g transform="translate(15, 50)">
        <text x="0" y="0" class="label-text">VERIFICATION STATUS</text>
        <g transform="translate(0, 15)">
          <rect x="0" y="0" width="310" height="50" rx="4" fill="#065F46" filter="url(#badge-shadow)"/>
          <text x="155" y="32" class="header-text" style="font-size: 20px; fill: #FFFFFF; text-anchor: middle; letter-spacing: 4px;">GREEN</text>
        </g>
        <text x="0" y="85" class="terminal-sm">LAST VERIFIED: 2026-06-07 14:33:02 EST</text>
        <text x="0" y="100" class="terminal-sm">AUDIT TRAIL: TAMPER-PROOF</text>
      </g>
      
      <line x1="15" y1="120" x2="325" y2="120" stroke="#D1CCC2" stroke-width="1.5"/>

      <g transform="translate(15, 140)">
        <text x="0" y="0" class="header-text" style="font-size: 10px;">PORTFOLIO METRICS</text>
        
        <g transform="translate(0, 20)">
          <text x="0" y="0" class="label-text" style="font-size: 9px;">CATEGORY</text>
          <text x="230" y="0" class="label-text" style="font-size: 9px; text-anchor: end;">VALUE</text>
          <line x1="0" y1="8" x2="310" y2="8" stroke="#EBE6DE" stroke-width="1"/>
          
          <g transform="translate(0, 20)">
            <rect x="0" y="-10" width="310" height="18" fill="#F4F1EA"/>
            <text x="0" y="4" class="terminal-text">LOCATIONS NORMALIZED</text>
            <text x="230" y="4" class="data-mono" style="text-anchor: end;">12</text>
          </g>
          <g transform="translate(0, 40)">
            <text x="0" y="4" class="terminal-text">PLATFORMS INTEGRATED</text>
            <text x="230" y="4" class="data-mono" style="text-anchor: end;">3</text>
          </g>
          <g transform="translate(0, 60)">
            <rect x="0" y="-10" width="310" height="18" fill="#F4F1EA"/>
            <text x="0" y="4" class="terminal-text">SIGNALS CAPTURED</text>
            <text x="230" y="4" class="data-mono accent" style="text-anchor: end;">1,247</text>
          </g>
          <g transform="translate(0, 80)">
            <text x="0" y="4" class="terminal-text">ROUTED TO STAFF</text>
            <text x="230" y="4" class="data-mono emerald-text" style="text-anchor: end;">892</text>
          </g>
          <g transform="translate(0, 100)">
            <rect x="0" y="-10" width="310" height="18" fill="#F4F1EA"/>
            <text x="0" y="4" class="terminal-text accent">RECOVERED CONSULTS</text>
            <text x="230" y="4" class="data-mono accent" style="text-anchor: end;">247</text>
          </g>
          <g transform="translate(0, 120)">
            <text x="0" y="4" class="terminal-text">PHI EXPOSURES</text>
            <text x="230" y="4" class="data-mono emerald-text" style="text-anchor: end;">0</text>
          </g>
        </g>
      </g>
      
      <line x1="15" y1="310" x2="325" y2="310" stroke="#D1CCC2" stroke-width="1.5"/>

      <g transform="translate(15, 330)">
        <text x="0" y="0" class="header-text" style="font-size: 10px;">COMPLIANCE SCORE</text>
        
        <g transform="translate(0, 20)">
          <text x="0" y="0" class="label-text" style="font-size: 9px;">DOMAIN</text>
          <text x="230" y="0" class="label-text" style="font-size: 9px; text-anchor: end;">SCORE</text>
          <line x1="0" y1="8" x2="310" y2="8" stroke="#EBE6DE" stroke-width="1"/>
          
          <g transform="translate(0, 20)">
            <rect x="0" y="-10" width="310" height="18" fill="#F4F1EA"/>
            <text x="0" y="4" class="terminal-text">CLINICAL ROUTING</text>
            <text x="230" y="4" class="data-mono emerald-text" style="text-anchor: end;">98/100</text>
          </g>
          <g transform="translate(0, 40)">
            <text x="0" y="4" class="terminal-text">DATA INTEGRITY</text>
            <text x="230" y="4" class="data-mono emerald-text" style="text-anchor: end;">95/100</text>
          </g>
          <g transform="translate(0, 60)">
            <rect x="0" y="-10" width="310" height="18" fill="#F4F1EA"/>
            <text x="0" y="4" class="terminal-text">CPAV ATTESTATION</text>
            <text x="230" y="4" class="data-mono accent" style="text-anchor: end;">82/100</text>
          </g>
          <g transform="translate(0, 80)">
            <text x="0" y="4" class="terminal-text">PHI SAFEGUARDS</text>
            <text x="230" y="4" class="data-mono emerald-text" style="text-anchor: end;">100/100</text>
          </g>
        </g>
      </g>
      
      <line x1="15" y1="470" x2="325" y2="470" stroke="#D1CCC2" stroke-width="1.5"/>

      <g transform="translate(15, 490)">
        <text x="0" y="0" class="header-text" style="font-size: 10px;">PROTOCOL VERIFICATION</text>
        
        <g transform="translate(0, 20)">
          <rect x="0" y="-4" width="310" height="16" fill="#F4F1EA" stroke="#E5E0D8" stroke-width="0.5"/>
          <text x="10" y="8" class="terminal-text">MORPHEUS8 ROUTING</text>
          <rect x="170" y="-2" width="130" height="12" fill="#F4F1EA" stroke="#E5E0D8" stroke-width="0.5"/>
          <rect x="170" y="-2" width="120" height="12" fill="#065F46" fill-opacity="0.6"/>
          <text x="305" y="8" class="terminal-sm" style="text-anchor: end;">92%</text>
        </g>
        
        <g transform="translate(0, 45)">
          <text x="0" y="0" class="terminal-text">NEUROTOXIN HANDOFF</text>
          <rect x="170" y="-8" width="140" height="10" fill="#F4F1EA" stroke="#E5E0D8" stroke-width="0.5"/>
          <rect x="170" y="-8" width="130" height="10" fill="#065F46" fill-opacity="0.6"/>
          <text x="315" y="0" class="terminal-sm" style="text-anchor: end;">98%</text>
        </g>
        
        <g transform="translate(0, 70)">
          <rect x="0" y="-12" width="315" height="22" fill="#F4F1EA"/>
          <text x="0" y="4" class="terminal-text accent">CONSENT MANAGEMENT</text>
          <rect x="170" y="-4" width="140" height="10" fill="#F4F1EA" stroke="#E5E0D8" stroke-width="0.5"/>
          <rect x="170" y="-4" width="115" height="10" fill="#B9825F" fill-opacity="0.6"/>
          <text x="315" y="4" class="terminal-sm accent" style="text-anchor: end;">82%</text>
        </g>
        
        <g transform="translate(0, 95)">
          <text x="0" y="0" class="terminal-text">HIPAA SAFEGUARDS</text>
          <rect x="170" y="-8" width="140" height="10" fill="#F4F1EA" stroke="#E5E0D8" stroke-width="0.5"/>
          <rect x="170" y="-8" width="140" height="10" fill="#065F46" fill-opacity="0.7"/>
          <text x="315" y="0" class="terminal-sm" style="text-anchor: end;">100%</text>
        </g>
      </g>
      
      <line x1="15" y1="680" x2="325" y2="680" stroke="#EBE6DE" stroke-width="1"/>
      <rect x="15" y="690" width="310" height="12" fill="none" stroke="#B9825F" stroke-width="0.5"/>
      <text x="170" y="699" class="label-text" style="font-size: 7px; text-anchor: middle; fill: #B9825F;">[ OPERATIONAL VERIFICATION ONLY ] NOT LEGAL OR MEDICAL ADVICE</text>
    </g>
  </g>

  <!-- BOTTOM TRAY -->
  <g id="bottom-tray" transform="translate(0, 760)">
    <rect x="0" y="0" width="1200" height="40" fill="#221F1B" />
    <line x1="0" y1="0" x2="1200" y2="0" stroke="#3A3A3A" stroke-width="1"/>
    
    <text x="15" y="25" class="terminal-text" style="fill: #FBF7EF; font-size: 13px;">scrutexity@verify:~#</text>
    <text x="180" y="25" class="terminal-text" style="fill: #D1CCC2; font-size: 13px;">./verify --portfolio all --status GREEN</text>
    
    <rect x="480" y="14" width="10" height="16" fill="#065F46">
      <animate attributeName="opacity" values="1;0;1" dur="1s" repeatCount="indefinite" />
    </rect>
    
    <text x="1020" y="25" class="terminal-sm" style="fill: #A0A0A0; text-anchor: end;">VERIFIED: 849,201 | STATUS: GREEN | MODE: READ-ONLY</text>
    <circle cx="1185" cy="20" r="4" fill="#065F46"/>
    <text x="1195" y="25" class="terminal-sm" style="fill: #065F46;">LIVE</text>
  </g>
</svg>
